/* XPM */
static char *carrot__1___1_1743182546[] = {
/* columns rows colors chars-per-pixel */
"32 32 63 1 ",
"  c #E8670E",
". c #EA680F",
"X c #EA690F",
"o c #E86911",
"O c #EC6C11",
"+ c #ED6E12",
"@ c #E86D14",
"# c #E96F16",
"$ c #ED7114",
"% c #EE7316",
"& c #ED7417",
"* c #EF7517",
"= c #EB781D",
"- c #EC7A1C",
"; c #EE7B1E",
": c #F07819",
"> c #F17A1B",
", c #F17D1E",
"< c #F07D1F",
"1 c #EF7D20",
"2 c #EC7F24",
"3 c #F27F21",
"4 c #5C9F0A",
"5 c #67970D",
"6 c #5DA20D",
"7 c #60A30D",
"8 c #62A60D",
"9 c #63A70D",
"0 c #63A60E",
"q c #66AC0F",
"w c #64A411",
"e c #65A813",
"r c #66A912",
"t c #6BAF14",
"y c #6BAF15",
"u c #6FB11B",
"i c #6FB31A",
"p c #78BA24",
"a c #7CBD27",
"s c #7BBD28",
"d c #84950F",
"f c #9E9117",
"g c #A79625",
"h c #C98C1D",
"j c #DF851D",
"k c #EF882B",
"l c #EF892C",
"z c #F18022",
"x c #F28223",
"c c #F18724",
"v c #F28426",
"b c #F18A24",
"n c #F3862A",
"m c #F3882D",
"M c #F0892F",
"N c #F38B2E",
"B c #F08D2D",
"V c #F08E33",
"C c #F58D34",
"Z c #F59039",
"A c #F6933D",
"S c #F79643",
"D c None",
/* pixels */
"DDDDDDDDDDDDDDDDDDDDDDDDDDDDDDDD",
"DDDDDDDDDDDDDDDDDDDDDDDDDDDDDDDD",
"DDDDDDDDDDDDDDDDDDDDDDDDDDDDDDDD",
"DDDDDDDDDDDDDDDDDDDDDDDDDDDDDDDD",
"DDDDDDDDDDDDDDDDDDpDDDDDDDDDDDDD",
"DDDDDDDDDDDDDDDDD0tieytsDDDDDDDD",
"DDDDDDDDDDDDDDDDDD009yqiDDDDDDDD",
"DDDDDDDDDDDDDDDDDD649qtuDDDDDDDD",
"DDDDDDDDDDDDDDDDkNg5499eaDDDDDDD",
"DDDDDDDDDDDDDDBbmNNhd469yuDDDDDD",
"DDDDDDDDDDDDDVcNCmx3jfwe0wDDDDDD",
"DDDDDDDDDDDDDcNAZn,>>3DDDDDDDDDD",
"DDDDDDDDDDDDBbASCx>**>lDDDDDDDDD",
"DDDDDDDDDDDDcNSZv-*$+:=DDDDDDDDD",
"DDDDDDDDDDDkxCZm,>*$++#DDDDDDDDD",
"DDDDDDDDDDDcNAN,**%%$XDDDDDDDDDD",
"DDDDDDDDDDNvZAv>*$$$+oDDDDDDDDDD",
"DDDDDDDDDD1mAm,**$$+oDDDDDDDDDDD",
"DDDDDDDDD23ZC3**%$O.DDDDDDDDDDDD",
"DDDDDDDDD=mCc**$$+oDDDDDDDDDDDDD",
"DDDDDDDDD3mn,$$$+.DDDDDDDDDDDDDD",
"DDDDDDDD=xm,*$+O.DDDDDDDDDDDDDDD",
"DDDDDDDD=cx*$$+XDDDDDDDDDDDDDDDD",
"DDDDDDDD33>$$OXDDDDDDDDDDDDDDDDD",
"DDDDDDDD,>$$o.DDDDDDDDDDDDDDDDDD",
"DDDDDDDD>*$+XDDDDDDDDDDDDDDDDDDD",
"DDDDDDDD$$.oDDDDDDDDDDDDDDDDDDDD",
"DDDDDDDD@#DDDDDDDDDDDDDDDDDDDDDD",
"DDDDDDDDDDDDDDDDDDDDDDDDDDDDDDDD",
"DDDDDDDDDDDDDDDDDDDDDDDDDDDDDDDD",
"DDDDDDDDDDDDDDDDDDDDDDDDDDDDDDDD",
"DDDDDDDDDDDDDDDDDDDDDDDDDDDDDDDD"
};
