/* XPM */
static char *_e2cf9c582364d5694539ccf088650abFfmclVF2wVjnopvW[] = {
/* columns rows colors chars-per-pixel */
"32 32 90 1 ",
"  c black",
". c #060606",
"X c #080607",
"o c #0D0B0C",
"O c #0E0E10",
"+ c gray7",
"@ c #181818",
"# c #1D1D1D",
"$ c #221C1E",
"% c #262020",
"& c gray15",
"* c #2A2220",
"= c #262827",
"- c #2A2A2A",
"; c #2A2A2C",
": c #2F2F2F",
"> c #37322F",
", c #323232",
"< c #353535",
"1 c #3E3030",
"2 c #3E3E3E",
"3 c #463A3A",
"4 c #464646",
"5 c gray29",
"6 c gray31",
"7 c #514545",
"8 c #515151",
"9 c gray33",
"0 c #5E5556",
"q c #585858",
"w c gray36",
"e c #625252",
"r c #6F5F60",
"t c gray38",
"y c #6F6669",
"u c gray42",
"i c #6B6B6D",
"p c #756162",
"a c gray44",
"s c #7B7B7B",
"d c #7F7B7C",
"f c gray49",
"g c #857575",
"h c #818181",
"j c gray53",
"k c #898989",
"l c #8B8D8C",
"z c #8E8E8E",
"x c #909090",
"c c #959593",
"v c #979797",
"b c #9B9B9B",
"n c #9A9A9C",
"m c gray62",
"M c #A68B90",
"N c #B4A19D",
"B c #A2A2A2",
"V c #A5A5A5",
"C c gray67",
"Z c #ADADAB",
"A c gray68",
"S c #B0AFAD",
"D c #AEB0AF",
"F c #AFB1B0",
"G c #B2B2B2",
"H c gray71",
"J c gray72",
"K c gray75",
"L c #CCB2B1",
"P c #C3BABB",
"I c #C4BBBE",
"U c #C4BFBC",
"Y c #CFBDBD",
"T c #D7BEC1",
"R c #C5C5C5",
"E c #CACACA",
"W c #D4D2D3",
"Q c #D5D5D5",
"! c gray87",
"~ c #E8C8C9",
"^ c #ECCACB",
"/ c #F3CFCF",
"( c #F4CDCE",
") c #F6D0CF",
"_ c #F6CFD0",
"` c #F8CED0",
"' c #F4D0D0",
"] c #F3D3D4",
"[ c #E1DFE0",
"{ c gray88",
/* pixels */
"       *0        =3             ",
"       7(c       T(             ",
"       7__q    .d__             ",
"       7__y,   C^))             ",
"       %_)_F+ -H__~             ",
"        (_'I8 G1__e             ",
"        r__U8 G__($             ",
"        +/_psbu/_L              ",
"         >`HGGGP'o              ",
"          SjGGGAM               ",
"          n<HGG#O               ",
"          GaGYNqG               ",
"         :GDkg]WZ               ",
"         GHx!{!{Vi              ",
"         GGE!!R[;GX             ",
"         <GGKJzKGAl4            ",
"         ,VVGGGBGmGG5           ",
"         GGCGGGCGGGGGf          ",
"        #GGGGGGGGGGGGB          ",
"         GGGGG6GGGGGGGA         ",
"         GGGGG2GGGGGGGG         ",
"         GGGGAGGGGGGGGG#        ",
"         GGGbmGGGGGGGGGh        ",
"          GGqGGGGGGGGGGGu       ",
"          mGGGGGGGGGGGGGH       ",
"          @BGvGGGGGGGGGGv       ",
"          .2GCGGGGGGGGGGA       ",
"           GjGGGGGGGtGGGQ       ",
"          .GGGGVVGGGGGGG4       ",
"          CGxGG9GBGGGGGw        ",
"         x@mGGv  hBjGAv         ",
"          2xGA&  &@,,-          "
};
