/* XPM */
static char *rabbit__1___1_1743182546[] = {
/* columns rows colors chars-per-pixel */
"32 32 148 2 ",
"   c #534331",
".  c #664D30",
"X  c #765832",
"o  c #7B5C35",
"O  c #745939",
"+  c #7D5F3A",
"@  c #7C613D",
"#  c #595049",
"$  c #645B52",
"%  c #685D51",
"&  c #7E6240",
"*  c #7C6549",
"=  c #73675C",
"-  c #7B6E60",
";  c #7C7166",
":  c #836743",
">  c #8A6943",
",  c #886B47",
"<  c #8B6E49",
"1  c #8E714E",
"2  c #826C51",
"3  c #816D58",
"4  c #84715D",
"5  c #8A745E",
"6  c #937550",
"7  c #9D7C56",
"8  c #907759",
"9  c #977C5B",
"0  c #877663",
"q  c #8A7661",
"w  c #847668",
"e  c #8B7B69",
"r  c #8D7D6B",
"t  c #8A7C6D",
"y  c #8D7D6C",
"u  c #8E7E6E",
"i  c #907A63",
"p  c #A1835D",
"a  c #998061",
"s  c #9A8267",
"d  c #9F8465",
"f  c #9F8667",
"g  c #92816D",
"h  c #97836D",
"j  c #988268",
"k  c #928271",
"l  c #968371",
"z  c #978774",
"x  c #9D8A71",
"c  c #9E8B76",
"v  c #998A78",
"b  c #9B8C7B",
"n  c #9D8E7E",
"m  c #9C8F7E",
"M  c #A68660",
"N  c #A38967",
"B  c #A98966",
"V  c #A78A68",
"C  c #A48C6E",
"Z  c #A88B68",
"A  c #AA8D69",
"S  c #B18E66",
"D  c #B0906B",
"F  c #A38D70",
"G  c #A58D71",
"H  c #A78E71",
"J  c #A68F7C",
"K  c #AB8B7D",
"L  c #AC9373",
"P  c #A39078",
"I  c #AF9678",
"U  c #AC947B",
"Y  c #B39573",
"T  c #B79671",
"R  c #B59673",
"E  c #B59774",
"W  c #BA9774",
"Q  c #B49978",
"!  c #B2997D",
"~  c #B49C7E",
"^  c #BFA17E",
"/  c #C3A07A",
"(  c #C7A17B",
")  c #9E9184",
"_  c #A09383",
"`  c #A09485",
"'  c #A29484",
"]  c #A29585",
"[  c #A59786",
"{  c #AC9985",
"}  c #AC9C86",
"|  c #A59889",
" . c #A69A8B",
".. c #AB9B8B",
"X. c #A89C8C",
"o. c #B79F84",
"O. c #B99A87",
"+. c #BCA687",
"@. c #B1A08B",
"#. c #B5A38C",
"$. c #B8A489",
"%. c #BDA588",
"&. c #B9A78F",
"*. c #BDA98D",
"=. c #B7A791",
"-. c #B0A597",
";. c #B8A893",
":. c #BAA992",
">. c #BCAC95",
",. c #B1A89A",
"<. c #B3A99B",
"1. c #BEB09B",
"2. c #BDB09E",
"3. c #BDB2A2",
"4. c #CAA682",
"5. c #C4A989",
"6. c #C0AA8C",
"7. c #C8AA8B",
"8. c #C0A593",
"9. c #C3AE91",
"0. c #C5B095",
"q. c #C5B49D",
"w. c #CDB498",
"e. c #C3B5A1",
"r. c #C2B6A4",
"t. c #C5B9A7",
"y. c #C0B7A9",
"u. c #C6BCAC",
"i. c #C4BCAE",
"p. c #C8BCA8",
"a. c #C6BFB2",
"s. c #CCC1AF",
"d. c #C7C0B4",
"f. c #C9C1B4",
"g. c #C9C2B5",
"h. c #CDC6BA",
"j. c #CEC7BB",
"k. c #CCC7BC",
"l. c #D0C4B2",
"z. c #D1C7B4",
"x. c #D1C9BC",
"c. c #D1CBBF",
"v. c #D3CEC3",
"b. c #D5CFC3",
"n. c #D3CFC4",
"m. c #D7D1C6",
"M. c #DAD6CD",
"N. c None",
/* pixels */
"N.N.N.N.N.N.N.N.N.N.N.N.N.N.N.N.N.N.N.N.N.N.N.N.N.N.N.N.N.N.N.N.",
"N.N.N.N.N.N.N.N.N.N.N.N.N.N.N.N.N.N.N.N.; N.N.N.N.N.N.N.N.N.N.N.",
"N.N.N.N.N.N.N.N.N.N.N.N.N.N.N.N.N.N.N.) = N.N.N.N.N.N.N.N.N.N.N.",
"N.N.N.N.N.N.N.| | l q N.N.N.N.N.N.N.[ w N.N.N.N.N.N.N.N.N.N.N.N.",
"N.N.N.N.N.N.N.` -.8.K h N.N.N.N.N.} r y N.N.N.N.N.N.N.N.N.N.N.N.",
"N.N.N.N.N.N.N.N.' :.:.z N N.N.N.N.N 4 } N.N.N.N.N.N.N.N.N.N.N.N.",
"N.N.N.N.N.N.N.N.v ..O.O.9 V N.N.j > i N.N.N.N.N.N.N.N.N.N.N.N.N.",
"N.N.N.N.N.N.N.N.c b K U d 6 T N., o A N.N.N.N.N.N.N.N.N.N.N.N.N.",
"N.N.N.N.N.N.N.N.N.t l K H @ B 5.Y T 5.N.N.N.N.N.N.N.N.N.N.N.N.N.",
"N.N.N.N.N.N.N.N.N.N.n { H 6 W ( ( ( 4.w.N.N.N.N.N.N.N.N.N.N.N.N.",
"N.N.N.N.N.N.N.N.N.N.N.;.F L T S D W W / N.N.N.N.N.N.N.N.N.N.N.N.",
"N.N.N.N.N.N.N.N.N.N.N.e.U @.$.Y M M V S ^ N.N.N.N.N.N.N.N.N.N.N.",
"N.N.N.N.N.N.N.N.N.N.N.u.|  .z z A 7 7 p E N.N.N.N.N.N.N.N.N.N.N.",
"N.N.N.N.N.N.N.N.N.N.d.y.n y # # U 7 6 7 H N.N.N.N.N.N.N.N.N.N.N.",
"N.N.N.N.N.N.N.N.N.) h.9.C g % $ P 1 : < p &.N.N.N.N.N.N.N.N.N.N.",
"N.N.N.N.N.N.N.N.q _ v.6.A N x H 9 O O @ < L N.N.N.N.N.N.N.N.N.N.",
"N.N.N.N.N.N.N.N.4 ) m.0.D N L V : & < @ 6 A %.N.N.N.N.N.N.N.N.N.",
"N.N.N.N.N.N.N.j 4 %.x.g.+.D I F & 1 9 < V Q *.N.N.N.N.N.N.N.N.N.",
"N.N.N.N.N.N.N.y e $.$.p.f.9.5.^ M Q H d #.q.r.N.N.N.N.N.N.N.N.N.",
"N.N.N.N.N.N.N.g e o.I U >.t.s.g.z.z.p.t.h.u.m N.N.N.N.N.N.N.N.N.",
"N.N.N.N.N.N.N.g r $.$.Y L ~ ;.t.g.d.i.3.2.>.g ) N.N.N.N.N.N.N.N.",
"N.N.N.N.N.N.N.b r *.0.9.7.0.q.q.t.i.d.3.>.;.e [ N.N.N.N.N.N.N.N.",
"N.N.N.N.N.N.N.,.b 0.t.g.c.x.z.f.x.h.h.g.p.@.q <.N.N.N.N.N.N.N.N.",
"N.N.N.N.N.N.N.d.,.>.q.m.M.M.m.m.v.c.c.x.d.b e 3.N.N.N.N.N.N.N.N.",
"N.N.N.N.N.N.N.m.u.2.+.s.v.v.v.v.x.h.g.u.=.l b g.N.N.N.N.N.N.N.N.",
"N.N.N.N.N.N.N.N.k.3.%.o.=.3.d.g.d.y.-.{ U b -.h.N.N.N.N.N.N.N.N.",
"N.N.N.N.N.N.N.N.N.2.$.U H P  .,.-._ x C C r X.N.N.N.N.N.N.N.N.N.",
"N.N.N.N.N.N.N.N.N.i 0 U d 8 2 - = 2 8 C * . a N.N.N.N.N.N.N.N.N.",
"N.N.N.N.N.N.N.N.N.3 4 F 6 o X   . X : N * @ V w.N.N.N.N.N.N.N.N.",
"N.N.N.N.N.N.N.N.N.N.2.~ 9 > 1 * 2 > : V H q c N.N.N.N.N.N.N.N.N.",
"N.N.N.N.N.N.N.N.N.N.N.! s i s N.N.N.5 N.N.N.N.N.N.N.N.N.N.N.N.N.",
"N.N.N.N.N.N.N.N.N.N.N.N.N.N.N.N.N.N.N.N.N.N.N.N.N.N.N.N.N.N.N.N."
};
